Starting part2 nfs->wav extract...
✨ Pixi task (sync-vr-audio): python scripts/sync_vr_audio.py --preset kavr500_part2 --output test_voice_clips/vr_kavr500_part2.wav: (Extract WAV from NFS/gvfs VR video via ffmpeg)
ffmpeg version 8.1.2 Copyright (c) 2000-2026 the FFmpeg developers
  built with gcc 14.3.0 (conda-forge gcc 14.3.0-19)
  configuration: --prefix=/home/rmqlife/work/voice_understanding/.pixi/envs/default --cc=/home/conda/feedstock_root/build_artifacts/ffmpeg_1781692958127/_build_env/bin/x86_64-conda-linux-gnu-cc --cxx=/home/conda/feedstock_root/build_artifacts/ffmpeg_1781692958127/_build_env/bin/x86_64-conda-linux-gnu-c++ --nm=x86_64-conda-linux-gnu-nm --ar=x86_64-conda-linux-gnu-ar --disable-doc --enable-openssl --enable-demuxer=dash --enable-hardcoded-tables --enable-libfreetype --enable-libharfbuzz --enable-libfontconfig --enable-libopenh264 --enable-libdav1d --disable-gnutls --enable-libvpx --enable-libass --enable-libplacebo --enable-pthreads --enable-alsa --enable-libpulse --enable-libvpl --enable-vaapi --enable-libopenvino --enable-gpl --enable-libx264 --enable-libx265 --enable-libmp3lame --enable-libaom --enable-libsvtav1 --enable-libxml2 --enable-pic --enable-shared --disable-static --enable-version3 --enable-zlib --enable-libvorbis --enable-libopus --enable-librsvg --enable-libjxl --enable-libwebp --enable-ffplay --enable-vulkan --enable-libshaderc --pkg-config=/home/conda/feedstock_root/build_artifacts/ffmpeg_1781692958127/_build_env/bin/pkg-config
  libavutil      60. 26.102 / 60. 26.102
  libavcodec     62. 28.102 / 62. 28.102
  libavformat    62. 12.102 / 62. 12.102
  libavdevice    62.  3.102 / 62.  3.102
  libavfilter    11. 14.102 / 11. 14.102
  libswscale      9.  5.102 /  9.  5.102
  libswresample   6.  3.102 /  6.  3.102
Input #0, mov,mp4,m4a,3gp,3g2,mj2, from '/run/user/1000/gvfs/smb-share:server=atop-nuc-fnos.local,share=jav/KAVR-5008K/489155.com@KAVR-500.PART2_8K.mp4':
  Metadata:
    major_brand     : isom
    minor_version   : 1
    compatible_brands: isom
    creation_time   : 2026-03-10T07:31:54.000000Z
  Duration: 00:36:50.54, start: 0.000000, bitrate: 13418 kb/s
  Stream #0:0[0x1](und): Video: hevc (Main) (hev1 / 0x31766568), yuv420p(tv, bt709, progressive), 8192x4096 [SAR 1:1 DAR 2:1], 13154 kb/s, 59.94 fps, 59.94 tbr, 60k tbn (default)
    Metadata:
      handler_name    : VideoHandler
      encoder         : Lavc60.31.102 libx265
  Stream #0:1[0x2](eng): Audio: aac (LC) (mp4a / 0x6134706D), 48000 Hz, stereo, fltp, 256 kb/s (default)
    Metadata:
      handler_name    : Sound Media Handler
Stream mapping:
  Stream #0:1 -> #0:0 (aac (native) -> pcm_s16le (native))
Press [q] to stop, [?] for help
Output #0, wav, to 'test_voice_clips/vr_kavr500_part2.wav':
  Metadata:
    major_brand     : isom
    minor_version   : 1
    compatible_brands: isom
    ISFT            : Lavf62.12.102
  Stream #0:0(eng): Audio: pcm_s16le ([1][0][0][0] / 0x0001), 16000 Hz, mono, s16, 256 kb/s (default)
    Metadata:
      encoder         : Lavc62.28.102 pcm_s16le
      handler_name    : Sound Media Handler
size=    1024KiB time=00:00:33.38 bitrate= 251.3kbits/s speed=66.8x elapsed=0:00:00.50    size=    1792KiB time=00:01:02.95 bitrate= 233.2kbits/s speed=62.9x elapsed=0:00:01.00    size=    2816KiB time=00:01:34.39 bitrate= 244.4kbits/s speed=62.9x elapsed=0:00:01.50    size=    3840KiB time=00:02:10.68 bitrate= 240.7kbits/s speed=65.3x elapsed=0:00:02.00    size=    4864KiB time=00:02:36.79 bitrate= 254.1kbits/s speed=62.7x elapsed=0:00:02.50    size=    5376KiB time=00:02:56.63 bitrate= 249.3kbits/s speed=58.9x elapsed=0:00:03.00    size=    5888KiB time=00:03:13.57 bitrate= 249.2kbits/s speed=55.3x elapsed=0:00:03.50    size=    6656KiB time=00:03:33.41 bitrate= 255.5kbits/s speed=53.3x elapsed=0:00:04.00    size=    6912KiB time=00:03:44.53 bitrate= 252.2kbits/s speed=49.9x elapsed=0:00:04.50    size=    7680KiB time=00:04:13.41 bitrate= 248.3kbits/s speed=50.7x elapsed=0:00:05.00    size=    8704KiB time=00:04:42.11 bitrate= 252.7kbits/s speed=51.3x elapsed=0:00:05.50    size=    9472KiB time=00:05:10.16 bitrate= 250.2kbits/s speed=51.7x elapsed=0:00:06.00    size=   10752KiB time=00:05:50.80 bitrate= 251.1kbits/s speed=  54x elapsed=0:00:06.50    size=   12288KiB time=00:06:33.38 bitrate= 255.9kbits/s speed=56.2x elapsed=0:00:07.00    size=   13312KiB time=00:07:07.26 bitrate= 255.2kbits/s speed=  57x elapsed=0:00:07.50    size=   14080KiB time=00:07:37.87 bitrate= 251.9kbits/s speed=57.2x elapsed=0:00:08.00    size=   15104KiB time=00:08:03.92 bitrate= 255.7kbits/s speed=56.9x elapsed=0:00:08.50    size=   16128KiB time=00:08:40.63 bitrate= 253.8kbits/s speed=57.8x elapsed=0:00:09.00    size=   16896KiB time=00:09:03.38 bitrate= 254.7kbits/s speed=57.2x elapsed=0:00:09.50    size=   18176KiB time=00:09:43.52 bitrate= 255.2kbits/s speed=58.3x elapsed=0:00:10.00    size=   19200KiB time=00:10:18.36 bitrate= 254.4kbits/s speed=58.9x elapsed=0:00:10.50    size=   20224KiB time=00:10:51.26 bitrate= 254.4kbits/s speed=59.2x elapsed=0:00:11.00    size=   20992KiB time=00:11:17.39 bitrate= 253.9kbits/s speed=58.9x elapsed=0:00:11.50    size=   22272KiB time=00:11:56.09 bitrate= 254.8kbits/s speed=59.7x elapsed=0:00:12.00    size=   23552KiB time=00:12:37.22 bitrate= 254.8kbits/s speed=60.6x elapsed=0:00:12.50    size=   24832KiB time=00:13:17.37 bitrate= 255.1kbits/s speed=61.3x elapsed=0:00:13.00    size=   26112KiB time=00:13:57.52 bitrate= 255.4kbits/s speed=  62x elapsed=0:00:13.50    size=   27392KiB time=00:14:38.65 bitrate= 255.4kbits/s speed=62.7x elapsed=0:00:14.00    size=   28160KiB time=00:15:08.18 bitrate= 254.0kbits/s speed=62.6x elapsed=0:00:14.50    size=   29440KiB time=00:15:49.78 bitrate= 253.9kbits/s speed=63.3x elapsed=0:00:15.00    size=   30976KiB time=00:16:31.87 bitrate= 255.8kbits/s speed=  64x elapsed=0:00:15.50    size=   32256KiB time=00:17:13.00 bitrate= 255.8kbits/s speed=64.5x elapsed=0:00:16.00    size=   33536KiB time=00:17:54.11 bitrate= 255.8kbits/s speed=65.1x elapsed=0:00:16.50    size=   34816KiB time=00:18:35.73 bitrate= 255.6kbits/s speed=65.6x elapsed=0:00:17.00    size=   35840KiB time=00:19:08.13 bitrate= 255.7kbits/s speed=65.6x elapsed=0:00:17.50    size=   36864KiB time=00:19:46.85 bitrate= 254.4kbits/s speed=65.9x elapsed=0:00:18.00    size=   38144KiB time=00:20:23.14 bitrate= 255.5kbits/s speed=66.1x elapsed=0:00:18.50    size=   38912KiB time=00:20:53.07 bitrate= 254.4kbits/s speed=65.9x elapsed=0:00:19.00    size=   39680KiB time=00:21:15.39 bitrate= 254.9kbits/s speed=65.4x elapsed=0:00:19.50    size=   40192KiB time=00:21:30.87 bitrate= 255.1kbits/s speed=64.5x elapsed=0:00:20.00    size=   40960KiB time=00:21:51.67 bitrate= 255.8kbits/s speed=  64x elapsed=0:00:20.50    size=   41984KiB time=00:22:30.67 bitrate= 254.6kbits/s speed=64.3x elapsed=0:00:21.00    size=   43264KiB time=00:23:05.21 bitrate= 255.9kbits/s speed=64.4x elapsed=0:00:21.50    size=   44288KiB time=00:23:42.95 bitrate= 255.0kbits/s speed=64.7x elapsed=0:00:22.00    size=   45312KiB time=00:24:14.88 bitrate= 255.1kbits/s speed=64.6x elapsed=0:00:22.50    size=   46336KiB time=00:24:50.68 bitrate= 254.6kbits/s speed=64.8x elapsed=0:00:23.00    size=   47360KiB time=00:25:17.28 bitrate= 255.7kbits/s speed=64.6x elapsed=0:00:23.50    size=   48384KiB time=00:25:49.71 bitrate= 255.8kbits/s speed=64.6x elapsed=0:00:24.00    size=   49408KiB time=00:26:21.46 bitrate= 255.9kbits/s speed=64.5x elapsed=0:00:24.50    size=   50176KiB time=00:26:53.56 bitrate= 254.7kbits/s speed=64.5x elapsed=0:00:25.00    size=   51200KiB time=00:27:25.03 bitrate= 255.0kbits/s speed=64.5x elapsed=0:00:25.50    size=   52224KiB time=00:27:56.94 bitrate= 255.1kbits/s speed=64.5x elapsed=0:00:26.00    size=   52992KiB time=00:28:20.18 bitrate= 255.3kbits/s speed=64.1x elapsed=0:00:26.50    size=   54016KiB time=00:28:49.87 bitrate= 255.8kbits/s speed=64.1x elapsed=0:00:27.00    size=   54784KiB time=00:29:21.12 bitrate= 254.8kbits/s speed=  64x elapsed=0:00:27.50    size=   56064KiB time=00:30:00.31 bitrate= 255.1kbits/s speed=64.3x elapsed=0:00:28.00    size=   57088KiB time=00:30:32.83 bitrate= 255.2kbits/s speed=64.3x elapsed=0:00:28.50    size=   58368KiB time=00:31:14.83 bitrate= 255.0kbits/s speed=64.6x elapsed=0:00:29.00    size=   59392KiB time=00:31:45.32 bitrate= 255.4kbits/s speed=64.6x elapsed=0:00:29.50    size=   60416KiB time=00:32:18.70 bitrate= 255.3kbits/s speed=64.6x elapsed=0:00:30.00    size=   61440KiB time=00:32:53.54 bitrate= 255.0kbits/s speed=64.7x elapsed=0:00:30.50    size=   62720KiB time=00:33:27.40 bitrate= 256.0kbits/s speed=64.7x elapsed=0:00:31.00    size=   63744KiB time=00:34:00.31 bitrate= 255.9kbits/s speed=64.8x elapsed=0:00:31.50    size=   64768KiB time=00:34:36.09 bitrate= 255.6kbits/s speed=64.9x elapsed=0:00:32.00    size=   65536KiB time=00:35:01.73 bitrate= 255.4kbits/s speed=64.7x elapsed=0:00:32.50    size=   66816KiB time=00:35:42.37 bitrate= 255.5kbits/s speed=64.9x elapsed=0:00:33.00    size=   67840KiB time=00:36:16.12 bitrate= 255.4kbits/s speed=64.9x elapsed=0:00:33.50    [out#0/wav @ 0x5dfe81759b00] video:0KiB audio:69079KiB subtitle:0KiB other streams:0KiB global headers:0KiB muxing overhead: 0.000110%
size=   69079KiB time=00:36:50.53 bitrate= 256.0kbits/s speed=  65x elapsed=0:00:34.00    
test_voice_clips/vr_kavr500_part2.wav
